<svg xmlns="http://www.w3.org/2000/svg" viewBox="0 0 101.75 57"><defs><style>.cls-1{fill:#1b2e61;fill-rule:evenodd;}</style></defs><title>资源 2</title><g id="图层_2" data-name="图层 2"><g id="图层_1-2" data-name="图层 1"><path class="cls-1" d="M36.86,8H42.5l-2.45,7.83h3.8L46,8h5.44L49,15.78l3.16.08L51.1,19.94,48,19.85l-2.5,9.07L40.32,29l-3.76-5.6c-2.78,5.46-6.93,6-10.72,6.49a21.48,21.48,0,0,1-13.41-4.52L19,23.3a9.43,9.43,0,0,0,7.16,2.76c4.11-.68,6-2.7,7-4.57Zm34.6,5.83c0-2.74,0-6.82-3.79-8-2.26-.4-7.09.79-10.41,7.18-2.89,6.09-4.56,14.69,3.06,16.14,4.22.27,7.21-3.53,8.71-5.5L65.4,21.8a4,4,0,0,1-3.56,2.78c-2-1.2-1.79-3.19-.44-7.75,1-2.46,2.43-5,4.43-5.44,2.09.18,1.84,2.46,1.65,3.28ZM25.58,24.74l-14-6.84L34.35,7.22v4.66L21.94,17.46l10.15,5.41Zm35.15,6-11.8,5.47L39,31.29l3.1-1.42h3.13l4,2.12,6.72-3.17ZM75.6,10.85,90.12,17.1,69,26.88l.67-4.57L80.8,17,72.47,13.6v-1ZM39,5.05,50.37,0,62.61,5.26,58.89,8,50.56,4.61l-6.2,2.77L38.81,5.13Zm1.28,14.8,2.17-.05-.63,1.83Z"/><polygon class="cls-1" points="73.04 43.88 76.71 43.88 76.71 48.5 82.21 48.5 82.21 43.88 85.88 43.88 85.88 56.8 82.21 56.8 82.21 51.41 76.71 51.41 76.71 56.8 73.04 56.8 73.04 43.88"/><path class="cls-1" d="M50.83,49.47h6.74a2.94,2.94,0,0,0,0,.35c0,1.84,0,3.21-.12,4.13a2.65,2.65,0,0,1-1.88,2.7,8.28,8.28,0,0,1-1.71.27c-.64,0-1.62.07-2.93.07a23.61,23.61,0,0,1-3.53-.18,3.18,3.18,0,0,1-1.63-.71,2.7,2.7,0,0,1-.64-1,6,6,0,0,1-.29-1.53q-.09-.88-.09-3.48c0-1.18,0-2.07.08-2.68a6.93,6.93,0,0,1,.27-1.6A2.35,2.35,0,0,1,46.9,44a21.69,21.69,0,0,1,4.55-.35,27.21,27.21,0,0,1,2.9.12,7,7,0,0,1,1.75.41,2.36,2.36,0,0,1,1.34,2,7.06,7.06,0,0,1,.12,1.54H54c0-.37,0-.23,0-.36a.6.6,0,0,0-.18-.32,1.74,1.74,0,0,0-1-.3,13.84,13.84,0,0,0-1.58-.06,7.52,7.52,0,0,0-1.6.1,1.51,1.51,0,0,0-.89.35,1.53,1.53,0,0,0-.33.86,19.84,19.84,0,0,0-.09,2.25,20.2,20.2,0,0,0,.09,2.32,1.62,1.62,0,0,0,.33.91,1,1,0,0,0,.62.31,11.1,11.1,0,0,0,1.86.09,16.16,16.16,0,0,0,1.86-.05,1.59,1.59,0,0,0,.69-.17.59.59,0,0,0,.3-.37,5,5,0,0,0,.09-1.14v-.35h-3.3Z"/><polygon class="cls-1" points="30.01 43.88 35.9 43.88 39.47 53.09 39.64 53.09 39.64 43.88 43.46 43.88 43.46 56.8 37.63 56.8 34.02 47.59 33.8 47.59 33.82 56.8 30.01 56.8 30.01 43.88"/><polygon class="cls-1" points="0 43.88 3.67 43.88 3.67 48.5 9.16 48.5 9.16 43.88 12.84 43.88 12.84 56.8 9.16 56.8 9.16 51.41 3.67 51.41 3.67 56.8 0 56.8 0 43.88"/><polygon class="cls-1" points="14.14 56.8 18.09 56.8 21.18 47.46 21.68 47.46 23.66 53.95 20.8 53.95 21.9 56.83 28.7 56.83 24.32 43.88 18.51 43.88 14.14 56.8"/><polygon class="cls-1" points="87.19 56.8 91.13 56.8 94.22 47.46 94.73 47.46 96.71 53.95 93.84 53.95 94.95 56.83 101.75 56.83 97.36 43.88 91.56 43.88 87.19 56.8"/><path class="cls-1" d="M68,52.39h3.67c0,.62,0,1,0,1.22a3.49,3.49,0,0,1-.35,1.77,2.22,2.22,0,0,1-1.49,1.28,14.8,14.8,0,0,1-3.84.34c-1.91,0-3.28,0-4.1-.14a4.26,4.26,0,0,1-1.83-.55,2.16,2.16,0,0,1-.82-1A5.64,5.64,0,0,1,59,53.6c0-.59-.06-1.64-.06-3.18s0-2.58.06-3.24a6.83,6.83,0,0,1,.26-1.54,2.41,2.41,0,0,1,1.7-1.6,24,24,0,0,1,5.17-.36,26.12,26.12,0,0,1,2.82.11,3.73,3.73,0,0,1,1.41.43,2.25,2.25,0,0,1,1,1.24,4.33,4.33,0,0,1,.28,1.83c0,.06,0,.28,0,.65H67.88a1.18,1.18,0,0,0-.06-.48,1,1,0,0,0-.16-.36,1.7,1.7,0,0,0-.9-.29,8.62,8.62,0,0,0-1.55-.09,7.17,7.17,0,0,0-1.4.08,1.42,1.42,0,0,0-.77.32,1.79,1.79,0,0,0-.38,1,18.65,18.65,0,0,0-.11,2.34,17.42,17.42,0,0,0,.1,2.26,1.35,1.35,0,0,0,.37.85,1.39,1.39,0,0,0,.82.35,6.66,6.66,0,0,0,1.38.09A10.65,10.65,0,0,0,67,53.88a1.24,1.24,0,0,0,.79-.33c.18-.22.27-.35.28-1.16"/></g></g></svg>